<svg xmlns="http://www.w3.org/2000/svg" width="900" height="1200" viewBox="0 0 900 1200" role="img" aria-label="Python">
  <defs>
    <linearGradient id="pyBg" x1="0" y1="0" x2="0" y2="1">
      <stop offset="0%" stop-color="#1b4332"/>
      <stop offset="50%" stop-color="#16324f"/>
      <stop offset="100%" stop-color="#1d3557"/>
    </linearGradient>
    <linearGradient id="pyBlue" x1="0" y1="0" x2="0" y2="1">
      <stop offset="0%" stop-color="#4584B6"/>
      <stop offset="100%" stop-color="#3776AB"/>
    </linearGradient>
    <linearGradient id="pyYellow" x1="0" y1="0" x2="0" y2="1">
      <stop offset="0%" stop-color="#FFD43B"/>
      <stop offset="100%" stop-color="#FFE873"/>
    </linearGradient>
  </defs>
  <rect width="900" height="1200" fill="url(#pyBg)"/>
  <g transform="translate(450 600) scale(2.35) translate(-49 -49)">
    <path fill="url(#pyBlue)" d="M48.9 0C22.8.2 24.4 11.4 24.4 11.4l.1 11.8h24.7v3.5H15.5S0 24.9 0 49.4c0 24.5 13.4 23.6 13.4 23.6h8v-11.4c0-12.4 10.6-11.5 10.6-11.5h27c12.1 0 11.6-12.1 11.6-12.1V11.5S76.3-.2 48.9 0zm-13.8 8.2c2.5 0 4.5 2 4.5 4.5s-2 4.5-4.5 4.5-4.5-2-4.5-4.5 2-4.5 4.5-4.5z"/>
    <path fill="url(#pyYellow)" d="M49.8 98.1c26.1-.2 24.5-11.4 24.5-11.4l-.1-11.8H49.5v-3.5h33.7S98.7 73.2 98.7 48.7c0-24.5-13.4-23.6-13.4-23.6h-8v11.4c0 12.4-10.6 11.5-10.6 11.5h-27c-12.1 0-11.6 12.1-11.6 12.1v24.4s1.3 11.8 28.7 11.6zm13.8-8.2c-2.5 0-4.5-2-4.5-4.5s2-4.5 4.5-4.5 4.5 2 4.5 4.5-2 4.5-4.5 4.5z"/>
  </g>
</svg>
